<svg xmlns="http://www.w3.org/2000/svg" xmlns:xlink="http://www.w3.org/1999/xlink" width="391" height="196" fill="none" xmlns:v="https://vecta.io/nano"><style><![CDATA[.B{fill:#fff}.C{fill:#005aaa}.D{fill:#0097cf}.E{fill:#00183e}.F{fill:#0079ad}.G{fill:#004579}]]></style><g opacity=".4"><g opacity=".3"><path d="M240 65.81L158.112 0H0v196l239.347-98.837L240 65.81z" fill="#003b61"/></g><g class="B"><path d="M47.986 62.353l-3.149.96 3.149.959.96 3.149.959-3.149 3.149-.959-3.149-.96-.959-3.149-.96 3.149zM37.33 142.696l-1.575.48 1.575.479.48 1.575.48-1.575 1.575-.479-1.575-.48-.48-1.575-.48 1.575zM215.871 32.398l-1.171.357 1.171.357.357 1.171.356-1.171 1.171-.357-1.171-.357-.356-1.171-.357 1.171z"/><use xlink:href="#G"/><path d="M52.095 169.069l-3.149.96 3.149.96.96 3.149.959-3.149 3.149-.96-3.149-.96-.959-3.149-.96 3.149zm106.598 14.79l-1.574.48 1.574.48.48 1.574.48-1.574 1.574-.48-1.574-.48-.48-1.575-.48 1.575zm166.05-170.657l-1.172.357 1.172.357.356 1.171.357-1.171 1.171-.357-1.171-.357-.357-1.171-.356 1.171z"/><use xlink:href="#G" x="140.652" y="113.104"/><path d="M371.618 99.128l-5.796 1.767 5.796 1.766 1.766 5.796 1.766-5.796 5.796-1.766-5.796-1.767-1.766-5.796-1.766 5.796zm13.034-28.027l-3.15.96 3.15.959.959 3.149.96-3.149 3.149-.959-3.149-.96-.96-3.149-.959 3.149z"/><use xlink:href="#G" x="279.874" y="16.511"/><path d="M385.422 179.683l-3.149.96 3.149.959.96 3.149.959-3.149 3.15-.959-3.15-.96-.959-3.149-.96 3.149z"/></g><path d="M212.258 169.751c0 2.744 37.047 4.969 82.748 4.969s82.747-2.225 82.747-4.969-37.047-4.969-82.747-4.969-82.748 2.225-82.748 4.969z" fill="#003b61"/><g class="C"><path d="M328.677 165.019l3.614-1.181-21.926-67.072-3.613 1.181 21.925 67.072zm-48.665-.418l-3.593-1.24 23.009-66.708 3.594 1.239-23.01 66.709z"/></g><path d="M290 111.494l29.831.242.052-6.336-29.832-.241-.051 6.335z" class="D"/><path d="M262.595 95.432c-.042 5.227 4.2 9.538 9.427 9.581l67.949.55c5.227.043 9.538-4.199 9.58-9.426l.193-23.758c.042-5.227-4.2-9.538-9.427-9.58l-67.949-.55c-5.227-.042-9.538 4.2-9.58 9.426l-.193 23.758z" class="C"/><path d="M254.678 95.051l7.92.064.187-23.125-7.92-.064-.187 23.125z" class="D"/><path d="M241.455 104.448l13.223-9.396.188-23.125-13.069-9.61-.342 42.131z" class="C"/><path d="M242.984 62.327l-.341 42.131c-.012 1.532-2.388 1.513-2.376-.019l.341-42.132c.013-1.532 2.389-1.513 2.376.019z" class="D"/><path d="M280.877 84.686a3.46 3.46 0 0 0 3.421 3.477l43.671.354a3.46 3.46 0 0 0 3.477-3.422l.07-8.623a3.46 3.46 0 0 0-3.422-3.477l-43.67-.354a3.46 3.46 0 0 0-3.477 3.422l-.07 8.623z" fill="#004982"/><g fill="#007cc5"><path d="M305.163 81.046l-.041 5.179-18.978-.154c-1.615-.013-2.925-1.345-2.911-2.959l.018-2.244 21.912.178zm-21.904-1.128l.018-2.244c.013-1.615 1.344-2.925 2.959-2.912l40.012.324c1.615.013 2.925 1.344 2.912 2.959l-.018 2.244-45.883-.371zm22.855 1.136l23.021.187-.019 2.244c-.013 1.614-1.345 2.925-2.959 2.912l-20.085-.163.042-5.179z"/></g><path d="M280.858 92.729c-.006.787.626 1.43 1.414 1.437l1.742.014c.788.006 1.431-.626 1.438-1.414s-.627-1.431-1.414-1.437l-1.743-.014c-.787-.007-1.43.627-1.437 1.414z" fill="#ff2d3b"/><mask id="A" maskUnits="userSpaceOnUse" x="280" y="91" width="6" height="4"><path d="M285.234 91.521h-4.376v2.659h4.376v-2.659z" class="B"/></mask><g mask="url(#A)" class="E"><g opacity=".1"><path d="M281.555 91.521c-.134.215-.216.466-.218.737-.006.787.627 1.431 1.414 1.437l1.743.014c.271.002.523-.076.74-.205a1.42 1.42 0 0 1-1.22.677l-1.742-.014c-.787-.007-1.42-.65-1.414-1.437a1.42 1.42 0 0 1 .697-1.209z"/></g></g><path d="M288.936 92.795c-.007.787.626 1.431 1.414 1.437l1.742.014c.788.007 1.431-.626 1.437-1.414s-.626-1.43-1.414-1.437l-1.742-.014c-.788-.007-1.43.627-1.437 1.414z" fill="#ffbee3"/><mask id="B" maskUnits="userSpaceOnUse" x="288" y="91" width="6" height="4"><path d="M293.312 91.587h-4.376v2.659h4.376v-2.659z" class="B"/></mask><g mask="url(#B)" class="E"><g opacity=".1"><path d="M289.633 91.587c-.134.215-.215.466-.218.737-.006.787.627 1.431 1.414 1.437l1.743.014c.271.002.523-.076.74-.205a1.42 1.42 0 0 1-1.219.677l-1.743-.014c-.787-.006-1.42-.65-1.414-1.437a1.42 1.42 0 0 1 .697-1.209z"/></g></g><g fill="#004982"><path d="M331.394 91.456l-34.075-.276c-.382-.003-.378-.597.005-.594l34.075.276c.383.003.378.597-.005.594zm-.015 1.9l-34.075-.276c-.383-.003-.378-.597.005-.594l34.075.276c.382.003.378.597-.005.594zm-.016 1.901l-34.075-.276c-.382-.003-.378-.597.005-.594l34.075.276c.383.003.378.597-.005.594z"/></g><g class="C"><path d="M318.11 62.618l3.928-12.308c1.267-3.538 3.259-3.511 4.426.062l3.564 12.344-11.918-.097z"/><path d="M314.253 47.648a9.94 9.94 0 0 0 9.856 10.018 9.94 9.94 0 0 0 10.018-9.857 9.94 9.94 0 0 0-9.857-10.018 9.94 9.94 0 0 0-10.017 9.857z"/></g><g class="F"><path d="M324.259 39.162a8.58 8.58 0 0 1 8.497 8.636 8.58 8.58 0 0 1-8.636 8.497c-4.724-.038-8.535-3.912-8.496-8.635a8.58 8.58 0 0 1 8.635-8.497zm-.142 17.503a8.95 8.95 0 0 0 9.009-8.864 8.95 8.95 0 0 0-8.864-9.009 8.95 8.95 0 0 0-9.008 8.864 8.95 8.95 0 0 0 8.863 9.009zm.132-16.207a7.28 7.28 0 0 1 7.211 7.329 7.28 7.28 0 0 1-7.329 7.211 7.28 7.28 0 0 1-7.211-7.329 7.28 7.28 0 0 1 7.329-7.211zm-.121 14.91a7.65 7.65 0 0 0 7.703-7.578 7.65 7.65 0 0 0-7.579-7.702 7.65 7.65 0 0 0-7.702 7.578 7.65 7.65 0 0 0 7.578 7.702z"/></g><path d="M315.293 50.456a2.8 2.8 0 0 0 2.822-2.777 2.8 2.8 0 0 0-2.777-2.822 2.8 2.8 0 0 0-2.822 2.777 2.8 2.8 0 0 0 2.777 2.822zm.576 5.46a2.8 2.8 0 0 0 3.991-3.927 2.8 2.8 0 0 0-3.991 3.927zm8.37-14.262a2.8 2.8 0 0 0 2.822-2.777 2.8 2.8 0 0 0-2.776-2.822 2.8 2.8 0 0 0-2.823 2.777 2.8 2.8 0 0 0 2.777 2.822zm-.144 17.748a2.8 2.8 0 0 0 2.822-2.777 2.8 2.8 0 0 0-2.776-2.822 2.8 2.8 0 0 0-2.823 2.777 2.8 2.8 0 0 0 2.777 2.822zm4.425-15.934a2.8 2.8 0 0 0 3.991-3.927 2.8 2.8 0 0 0-3.991 3.927zm-.102 12.55a2.8 2.8 0 0 0 3.991-3.927 2.8 2.8 0 0 0-3.991 3.927zm7.445-8.195a2.8 2.8 0 0 0-2.776-2.822 2.8 2.8 0 0 0-2.823 2.777 2.8 2.8 0 0 0 2.777 2.822 2.8 2.8 0 0 0 2.822-2.777zm-15.902-8.384a2.8 2.8 0 0 0-3.991 3.927 2.8 2.8 0 0 0 3.991-3.927zm4.333-4.58c7.107.058 12.822 5.866 12.765 12.974s-5.866 12.822-12.974 12.765a12.87 12.87 0 0 1-12.764-12.973c.058-7.108 5.866-12.822 12.973-12.765z" class="D"/><path d="M321.598 47.707a2.59 2.59 0 0 0 5.184.042c.012-1.432-1.14-2.602-2.571-2.613s-2.602 1.139-2.613 2.571z" class="E"/><path d="M322.986 47.718c-.005.665.529 1.208 1.194 1.213s1.208-.529 1.214-1.194-.53-1.208-1.194-1.213-1.208.529-1.214 1.194z" class="G"/><g class="C"><path d="M285.89 62.357l3.967-17.132c1.278-4.926 3.27-4.894 4.426.071l3.525 17.157-11.918-.097z"/><path d="M278.989 43.566A13.12 13.12 0 0 0 292 56.789a13.12 13.12 0 0 0 13.224-13.011 13.12 13.12 0 0 0-13.012-13.224 13.12 13.12 0 0 0-13.223 13.011z"/></g><g class="F"><path d="M292.198 32.364c6.235.05 11.266 5.164 11.216 11.399S298.25 55.03 292.015 54.98s-11.266-5.164-11.216-11.399 5.163-11.267 11.399-11.216zm-.187 23.104c6.504.053 11.839-5.196 11.891-11.701s-5.196-11.839-11.7-11.892-11.839 5.196-11.892 11.701 5.196 11.839 11.701 11.892zm.173-21.392a9.61 9.61 0 0 1 9.519 9.674 9.61 9.61 0 0 1-9.675 9.519 9.61 9.61 0 0 1-9.518-9.674 9.61 9.61 0 0 1 9.674-9.519zm-.16 19.682a10.1 10.1 0 0 0 10.168-10.004 10.1 10.1 0 0 0-10.004-10.167 10.1 10.1 0 0 0-10.167 10.004 10.1 10.1 0 0 0 10.003 10.167z"/></g><path d="M280.363 47.273c2.04.016 3.708-1.625 3.725-3.666s-1.625-3.709-3.665-3.725-3.71 1.624-3.727 3.665a3.7 3.7 0 0 0 3.667 3.726zm.759 7.207c1.432 1.455 3.771 1.474 5.226.042s1.474-3.771.042-5.226-3.771-1.474-5.225-.042-1.474 3.771-.043 5.226zm11.049-18.826c2.042.017 3.708-1.625 3.725-3.666s-1.624-3.709-3.665-3.726-3.708 1.625-3.725 3.666 1.624 3.709 3.665 3.726zm-.19 23.427c2.042.017 3.709-1.625 3.726-3.666s-1.624-3.708-3.666-3.725-3.708 1.624-3.725 3.666 1.624 3.709 3.665 3.725zm5.841-21.033c1.431 1.455 3.771 1.474 5.225.042s1.474-3.771.043-5.227-3.771-1.473-5.225-.042-1.475 3.772-.043 5.226zm-.134 16.565c1.431 1.455 3.771 1.474 5.225.042s1.474-3.771.043-5.226-3.771-1.474-5.226-.042-1.474 3.77-.042 5.226zm9.827-10.817c.016-2.041-1.625-3.709-3.665-3.725s-3.709 1.624-3.726 3.665 1.625 3.709 3.666 3.725 3.708-1.625 3.725-3.666zM286.524 32.73c-1.431-1.455-3.771-1.474-5.225-.042s-1.474 3.771-.043 5.226 3.771 1.474 5.226.042 1.474-3.771.042-5.226zm5.719-6.045a16.99 16.99 0 0 1 16.85 17.125 16.99 16.99 0 0 1-17.125 16.85 16.99 16.99 0 0 1-16.849-17.125 16.99 16.99 0 0 1 17.124-16.85z" class="D"/><path d="M288.685 43.645c-.015 1.89 1.504 3.434 3.394 3.45s3.434-1.504 3.45-3.394-1.505-3.435-3.395-3.45-3.434 1.504-3.449 3.394z" class="E"/><path d="M290.518 43.659a1.59 1.59 0 0 0 1.576 1.602 1.59 1.59 0 0 0 1.602-1.576 1.59 1.59 0 0 0-1.576-1.602 1.59 1.59 0 0 0-1.602 1.576z" class="G"/><g class="C"><path d="M234.987 165.699l.397-.071c.189-.033.315-.214.282-.403s-.215-.316-.404-.282l-.397.071c-.189.033-.315.214-.281.404s.214.315.403.281zm1.2 3.822c.044.187.231.303.418.259l.392-.093c.188-.043.304-.231.26-.418a.35.35 0 0 0-.419-.259l-.393.092a.35.35 0 0 0-.258.419zm1.524-4.614l.379-.139c.181-.066.274-.265.207-.446s-.266-.274-.446-.208l-.379.139a.35.35 0 0 0-.207.447c.066.18.266.273.446.207zm1.114 3.751c.076.176.28.258.457.182l.371-.159c.176-.075.258-.28.182-.457a.35.35 0 0 0-.457-.183l-.371.16c-.177.075-.258.279-.182.457zm1.254-4.717l.363-.177c.173-.084.244-.293.16-.465s-.293-.246-.465-.161l-.363.177a.35.35 0 0 0-.16.466c.084.173.293.245.465.16zm1.041 3.672a.35.35 0 0 0 .474.134l.352-.197c.168-.093.228-.305.134-.474s-.306-.228-.473-.134l-.352.196a.35.35 0 0 0-.135.475zm1.182-4.864l.342-.215c.163-.102.212-.317.109-.48s-.317-.212-.479-.11l-.342.215a.35.35 0 0 0-.109.48c.103.163.317.212.479.11zm.962 3.603c.111.157.328.194.484.082l.33-.232a.35.35 0 0 0 .083-.486.35.35 0 0 0-.486-.083l-.329.233c-.157.111-.194.328-.082.486zm1.328-5.215a.35.35 0 0 0 .034-.492.35.35 0 0 0-.491-.033l-.305.266a.35.35 0 0 0-.032.492c.127.144.347.159.491.032l.303-.265zm.574 3.839c.135.138.355.14.492.006l.289-.281c.138-.135.141-.355.006-.493s-.355-.141-.492-.007l-.289.282a.35.35 0 0 0-.006.493zm1.183-5.546c.123-.148.102-.368-.046-.49a.35.35 0 0 0-.49.045l-.258.312a.35.35 0 0 0 .047.491.35.35 0 0 0 .49-.047l.257-.311zm.533 3.868c.155.114.372.081.486-.074l.24-.324a.35.35 0 0 0-.073-.487c-.155-.115-.374-.082-.487.073l-.24.324a.35.35 0 0 0 .074.488zm1.084-5.757a.35.35 0 0 0-.095-.484.35.35 0 0 0-.483.093l-.225.336c-.108.158-.066.375.094.483s.376.065.483-.094l.226-.334zm.469 3.851c.165.099.379.044.477-.121l.207-.346c.099-.165.045-.378-.12-.477a.35.35 0 0 0-.478.119l-.207.347c-.099.165-.045.378.121.478zm.695-6.486c-.175-.081-.382-.003-.462.172l-.167.367c-.08.175-.003.38.173.461s.381.003.461-.172l.167-.366a.35.35 0 0 0-.172-.462zm.607 4.349c.179.071.381-.018.45-.197l.148-.375a.35.35 0 0 0-.197-.452.35.35 0 0 0-.452.196l-.147.376a.35.35 0 0 0 .198.452zm.974-2.176a.35.35 0 0 0 .424-.251l.101-.39a.35.35 0 0 0-.251-.424.35.35 0 0 0-.425.25l-.1.391a.35.35 0 0 0 .251.424zm-.614-4.341a.35.35 0 0 0-.438.227l-.121.385c-.058.183.043.378.228.437a.35.35 0 0 0 .436-.227l.122-.385a.35.35 0 0 0-.227-.437zm.171-3.017l1.254 6.455c-2.782 12.846-15.732 14.364-15.732 14.364l-2.736-5.863c14.755-1.368 17.214-14.956 17.214-14.956z"/><path d="M250.26 150.2c0 8.475 6.868 15.344 15.344 15.344s15.345-6.869 15.345-15.344-6.87-15.344-15.345-15.344-15.344 6.87-15.344 15.344z"/></g><g class="F"><path d="M265.604 136.973c7.294 0 13.227 5.934 13.227 13.227s-5.933 13.228-13.227 13.228-13.227-5.933-13.227-13.228 5.932-13.227 13.227-13.227zm0 27.027c7.609 0 13.799-6.19 13.799-13.8s-6.19-13.799-13.799-13.799-13.799 6.19-13.799 13.799 6.189 13.8 13.799 13.8zm0-25.026c6.19 0 11.227 5.036 11.227 11.226s-5.037 11.226-11.227 11.226-11.226-5.036-11.226-11.226 5.037-11.226 11.226-11.226zm0 23.024c6.505 0 11.798-5.293 11.798-11.798s-5.293-11.798-11.798-11.798-11.797 5.293-11.797 11.798 5.292 11.798 11.797 11.798z"/></g><path d="M251.902 154.523c2.386 0 4.322-1.935 4.322-4.323s-1.936-4.322-4.322-4.322-4.324 1.935-4.324 4.322 1.935 4.323 4.324 4.323zm.956 8.423a4.32 4.32 0 1 0 6.113-6.113 4.32 4.32 0 0 0-6.113 0c-1.688 1.688-1.688 4.425 0 6.113zm12.746-22.125c2.388 0 4.322-1.935 4.322-4.323s-1.934-4.323-4.322-4.323-4.323 1.935-4.323 4.323 1.935 4.323 4.323 4.323zm0 27.405c2.388 0 4.322-1.935 4.322-4.323s-1.934-4.323-4.322-4.323-4.323 1.935-4.323 4.323 1.935 4.323 4.323 4.323zm6.633-24.658a4.32 4.32 0 0 0 6.112 0c1.688-1.688 1.688-4.425 0-6.113a4.32 4.32 0 1 0-6.112 6.113zm0 19.378a4.32 4.32 0 0 0 6.112 0c1.688-1.688 1.688-4.425 0-6.113a4.32 4.32 0 1 0-6.112 6.113zm11.392-12.746c0-2.387-1.935-4.322-4.323-4.322s-4.323 1.935-4.323 4.322 1.936 4.323 4.323 4.323 4.323-1.935 4.323-4.323zm-24.658-12.745a4.32 4.32 0 0 0-6.113 0c-1.688 1.688-1.688 4.425 0 6.113a4.32 4.32 0 1 0 6.113-6.113zm6.633-7.126c10.974 0 19.872 8.896 19.872 19.871s-8.898 19.872-19.872 19.872-19.872-8.897-19.872-19.872 8.897-19.871 19.872-19.871z" class="D"/><path d="M261.602 150.2c0 2.211 1.792 4.003 4.003 4.003s4.002-1.792 4.002-4.003-1.792-4.003-4.002-4.003-4.003 1.792-4.003 4.003z" class="E"/><path d="M263.746 150.2a1.86 1.86 0 0 0 1.859 1.859 1.86 1.86 0 0 0 1.858-1.859 1.86 1.86 0 0 0-1.858-1.858 1.86 1.86 0 0 0-1.859 1.858z" class="G"/><mask id="C" maskUnits="userSpaceOnUse" x="245" y="134" width="36" height="37"><path d="M280.691 134.332h-34.959v35.74h34.959v-35.74z" class="B"/></mask><g mask="url(#C)" class="E"><g opacity=".1"><path d="M253.643 134.333a18.64 18.64 0 0 0-1.358 3.832 4.33 4.33 0 0 0-.468 3.712l-.012.425c0 1.224.129 2.422.365 3.589l-.268-.013c-2.389 0-4.324 1.935-4.324 4.323s1.935 4.322 4.324 4.322c1.332 0 2.522-.603 3.315-1.55.734 1.061 1.575 2.063 2.509 2.996a4.32 4.32 0 0 0-4.868.864c-1.688 1.688-1.688 4.425 0 6.114s4.425 1.688 6.113 0a4.32 4.32 0 0 0 .637-5.296 24.74 24.74 0 0 0 3.825 2.518c-1.286.749-2.152 2.139-2.152 3.734 0 2.388 1.935 4.323 4.323 4.323s4.322-1.935 4.322-4.323a4.34 4.34 0 0 0-.212-1.336l2.685.526c1.528 1.383 3.801 1.479 5.433.289l2.859-.256c-3.645 4.25-9.05 6.946-15.087 6.946-10.975 0-19.872-8.897-19.872-19.872 0-6.484 3.107-12.241 7.911-15.867z"/></g></g><mask id="D" maskUnits="userSpaceOnUse" x="287" y="154" width="16" height="15"><path d="M302.316 161.579c0 4.286-2.85 6.811-7.536 6.811s-7.537-2.525-7.537-6.811 2.851-6.811 7.537-6.811 7.536 2.526 7.536 6.811z" class="B"/></mask><g mask="url(#D)"><mask id="E" maskUnits="userSpaceOnUse" x="271" y="134" width="44" height="50"><path d="M314.6 134.885h-43.108v48.702H314.6v-48.702z" class="B"/></mask><g mask="url(#E)" class="B"><g opacity=".1"><path d="M273.466 136.044l38.058 38.058 1.159-1.159-38.058-38.058-1.159 1.159zm2.518 6.511l38.058 38.057.558-.557-38.058-38.058-.558.558zm-4.492 2.974l38.058 38.058 2.453-2.452-38.059-38.058-2.452 2.452z"/></g></g></g></g><defs ><path id="G" d="M77.491 14.73l-1.171.357 1.171.357.357 1.171.357-1.171 1.171-.357-1.171-.357-.357-1.171-.357 1.171z"/></defs></svg>


