<svg width="97" height="36" viewBox="0 0 97 36" fill="none" xmlns="http://www.w3.org/2000/svg">
<path d="M0 4V31.8584C0 34.1221 1.8768 35.9347 4.1391 35.856L93.1391 32.7593C95.2928 32.6844 97 30.9168 97 28.7618V4C97 1.79086 95.2091 0 93 0H4C1.79086 0 0 1.79086 0 4Z" fill="#537FE7"/>
<path d="M9.904 28V8.232H13.04L20.824 20.356H19.228L26.984 8.232H30.148V28H25.752V15.652L26.536 15.848L21.468 23.744H18.556L13.516 15.848L14.272 15.652V28H9.904ZM43.3752 28.336C41.8818 28.336 40.5005 28.0747 39.2312 27.552C37.9805 27.0293 36.8792 26.3013 35.9272 25.368C34.9752 24.4347 34.2378 23.352 33.7152 22.12C33.1925 20.8693 32.9312 19.5253 32.9312 18.088C32.9312 16.632 33.1925 15.288 33.7152 14.056C34.2378 12.824 34.9658 11.7507 35.8992 10.836C36.8325 9.90267 37.9245 9.184 39.1752 8.68C40.4445 8.15733 41.8258 7.896 43.3192 7.896C44.7938 7.896 46.1565 8.15733 47.4072 8.68C48.6765 9.184 49.7778 9.90267 50.7112 10.836C51.6632 11.7507 52.4005 12.8333 52.9232 14.084C53.4458 15.316 53.7072 16.66 53.7072 18.116C53.7072 19.5533 53.4458 20.8973 52.9232 22.148C52.4005 23.38 51.6725 24.4627 50.7392 25.396C49.8058 26.3107 48.7045 27.0293 47.4352 27.552C46.1845 28.0747 44.8312 28.336 43.3752 28.336ZM43.3192 24.332C44.4952 24.332 45.5218 24.0707 46.3992 23.548C47.2952 23.0253 47.9858 22.2973 48.4712 21.364C48.9565 20.412 49.1992 19.32 49.1992 18.088C49.1992 17.1547 49.0592 16.3147 48.7792 15.568C48.4992 14.8027 48.0978 14.1493 47.5752 13.608C47.0525 13.048 46.4272 12.628 45.6992 12.348C44.9898 12.0493 44.1965 11.9 43.3192 11.9C42.1432 11.9 41.1072 12.1613 40.2112 12.684C39.3338 13.188 38.6525 13.9067 38.1672 14.84C37.6818 15.7547 37.4392 16.8373 37.4392 18.088C37.4392 19.0213 37.5792 19.8707 37.8592 20.636C38.1392 21.4013 38.5312 22.064 39.0352 22.624C39.5578 23.1653 40.1832 23.5853 40.9112 23.884C41.6392 24.1827 42.4418 24.332 43.3192 24.332ZM61.8374 28L54.2214 8.232H58.9254L64.7214 24.22H62.7894L68.6694 8.232H73.3174L65.6174 28H61.8374ZM75.6384 28V8.232H80.0344V28H75.6384Z" fill="white"/>
</svg>
