<svg width="16" height="17" viewBox="0 0 16 17" fill="none" xmlns="http://www.w3.org/2000/svg">
<path fill-rule="evenodd" clip-rule="evenodd" d="M8 16.2405C10.1217 16.2405 12.1566 15.3976 13.6569 13.8973C15.1571 12.397 16 10.3622 16 8.24048C16 6.11875 15.1571 4.08392 13.6569 2.58362C12.1566 1.08333 10.1217 0.240479 8 0.240479C5.87827 0.240479 3.84344 1.08333 2.34315 2.58362C0.842855 4.08392 0 6.11875 0 8.24048C0 10.3622 0.842855 12.397 2.34315 13.8973C3.84344 15.3976 5.87827 16.2405 8 16.2405ZM7.555 5.40848C7.4044 5.308 7.22935 5.25029 7.04852 5.24151C6.86769 5.23272 6.68786 5.27319 6.52823 5.3586C6.3686 5.44401 6.23516 5.57116 6.14213 5.72647C6.04909 5.88178 5.99997 6.05944 6 6.24048V10.2405C5.99997 10.4215 6.04909 10.5992 6.14213 10.7545C6.23516 10.9098 6.3686 11.0369 6.52823 11.1224C6.68786 11.2078 6.86769 11.2482 7.04852 11.2395C7.22935 11.2307 7.4044 11.173 7.555 11.0725L10.555 9.07248C10.692 8.98116 10.8043 8.85743 10.8819 8.7123C10.9596 8.56716 11.0002 8.40509 11.0002 8.24048C11.0002 8.07587 10.9596 7.9138 10.8819 7.76866C10.8043 7.62352 10.692 7.4998 10.555 7.40848L7.555 5.40848Z" fill="#050636"/>
</svg>
