<svg width="16" height="15" viewBox="0 0 16 15" fill="none" xmlns="http://www.w3.org/2000/svg">
<path d="M7.04849 0.69075C7.34849 -0.23025 8.65149 -0.23025 8.95049 0.69075L10.0205 3.98275C10.0859 4.18324 10.2129 4.35793 10.3836 4.48185C10.5542 4.60578 10.7596 4.67259 10.9705 4.67275H14.4325C15.4015 4.67275 15.8035 5.91275 15.0205 6.48275L12.2205 8.51675C12.0495 8.64078 11.9222 8.81576 11.8568 9.0166C11.7914 9.21745 11.7913 9.43384 11.8565 9.63475L12.9265 12.9268C13.2265 13.8478 12.1715 14.6148 11.3865 14.0448L8.58649 12.0107C8.41569 11.8868 8.21005 11.82 7.99899 11.82C7.78793 11.82 7.58228 11.8868 7.41149 12.0107L4.61149 14.0448C3.82749 14.6148 2.77349 13.8478 3.07249 12.9268L4.14249 9.63475C4.20766 9.43384 4.20754 9.21745 4.14215 9.0166C4.07676 8.81576 3.94946 8.64078 3.77849 8.51675L0.979486 6.48375C0.196486 5.91375 0.599486 4.67375 1.56749 4.67375H5.02849C5.23953 4.67381 5.44519 4.60709 5.61601 4.48315C5.78683 4.35921 5.91406 4.1844 5.97949 3.98375L7.04949 0.69175L7.04849 0.69075Z" fill="#050636"/>
</svg>
