<svg width="14" height="16" viewBox="0 0 14 16" fill="none" xmlns="http://www.w3.org/2000/svg">
<path fill-rule="evenodd" clip-rule="evenodd" d="M7 6.24048C7.79565 6.24048 8.55871 5.92441 9.12132 5.3618C9.68393 4.79919 10 4.03613 10 3.24048C10 2.44483 9.68393 1.68177 9.12132 1.11916C8.55871 0.556549 7.79565 0.240479 7 0.240479C6.20435 0.240479 5.44129 0.556549 4.87868 1.11916C4.31607 1.68177 4 2.44483 4 3.24048C4 4.03613 4.31607 4.79919 4.87868 5.3618C5.44129 5.92441 6.20435 6.24048 7 6.24048ZM0 15.2405C-1.36979e-08 14.3212 0.18106 13.411 0.532843 12.5617C0.884626 11.7124 1.40024 10.9407 2.05025 10.2907C2.70026 9.64072 3.47194 9.12511 4.32122 8.77332C5.1705 8.42154 6.08075 8.24048 7 8.24048C7.91925 8.24048 8.82951 8.42154 9.67878 8.77332C10.5281 9.12511 11.2997 9.64072 11.9497 10.2907C12.5998 10.9407 13.1154 11.7124 13.4672 12.5617C13.8189 13.411 14 14.3212 14 15.2405H0Z" fill="#050636"/>
</svg>
