<svg width="16" height="17" viewBox="0 0 16 17" fill="none" xmlns="http://www.w3.org/2000/svg">
<path fill-rule="evenodd" clip-rule="evenodd" d="M8 16.2405C10.1217 16.2405 12.1566 15.3976 13.6569 13.8973C15.1571 12.397 16 10.3622 16 8.24048C16 6.11875 15.1571 4.08392 13.6569 2.58362C12.1566 1.08333 10.1217 0.240479 8 0.240479C5.87827 0.240479 3.84344 1.08333 2.34315 2.58362C0.842855 4.08392 0 6.11875 0 8.24048C0 10.3622 0.842855 12.397 2.34315 13.8973C3.84344 15.3976 5.87827 16.2405 8 16.2405ZM2.332 6.26748C2.70329 5.20419 3.36579 4.26658 4.244 3.56148C4.512 3.97048 4.974 4.24048 5.5 4.24048C5.89782 4.24048 6.27936 4.39851 6.56066 4.67982C6.84196 4.96112 7 5.34265 7 5.74048V6.24048C7 6.77091 7.21071 7.27962 7.58579 7.65469C7.96086 8.02976 8.46957 8.24048 9 8.24048C9.53043 8.24048 10.0391 8.02976 10.4142 7.65469C10.7893 7.27962 11 6.77091 11 6.24048C10.9998 5.7929 11.1498 5.35821 11.4259 5.00595C11.702 4.65369 12.0883 4.40423 12.523 4.29748C13.4773 5.38915 14.0022 6.7905 14 8.24048C14 8.58048 13.972 8.91548 13.917 9.24048H13C12.4696 9.24048 11.9609 9.45119 11.5858 9.82627C11.2107 10.2013 11 10.71 11 11.2405V13.4375C10.0883 13.965 9.05331 14.242 8 14.2405V12.2405C8 11.71 7.78929 11.2013 7.41421 10.8263C7.03914 10.4512 6.53043 10.2405 6 10.2405C5.46957 10.2405 4.96086 10.0298 4.58579 9.65469C4.21071 9.27962 4 8.77091 4 8.24048C4.00018 7.76748 3.83271 7.30972 3.52733 6.94851C3.22195 6.58729 2.79844 6.346 2.332 6.26748Z" fill="#050636"/>
</svg>
