<svg width="16" height="19" viewBox="0 0 16 19" fill="none" xmlns="http://www.w3.org/2000/svg">
<path fill-rule="evenodd" clip-rule="evenodd" d="M2.28571 0.240479C1.67951 0.240479 1.09812 0.481294 0.66947 0.909949C0.240816 1.3386 0 1.91998 0 2.52619V18.5262L4 16.2405L8 18.5262L12 16.2405L16 18.5262V2.52619C16 1.91998 15.7592 1.3386 15.3305 0.909949C14.9019 0.481294 14.3205 0.240479 13.7143 0.240479H2.28571ZM7.66514 4.47705C7.87332 4.2615 7.98852 3.97282 7.98591 3.67316C7.98331 3.37351 7.86312 3.08687 7.65122 2.87497C7.43933 2.66308 7.15268 2.54288 6.85303 2.54028C6.55338 2.53768 6.26469 2.65287 6.04914 2.86105L2.62057 6.28962C2.40632 6.50394 2.28596 6.79458 2.28596 7.09762C2.28596 7.40067 2.40632 7.6913 2.62057 7.90562L6.04914 11.3342C6.26469 11.5424 6.55338 11.6576 6.85303 11.655C7.15268 11.6524 7.43933 11.5322 7.65122 11.3203C7.86312 11.1084 7.98331 10.8217 7.98591 10.5221C7.98852 10.2224 7.87332 9.93374 7.66514 9.71819L6.18743 8.24048H8C8.90931 8.24048 9.78139 8.6017 10.4244 9.24468C11.0673 9.88767 11.4286 10.7597 11.4286 11.6691V12.8119C11.4286 13.115 11.549 13.4057 11.7633 13.62C11.9776 13.8344 12.2683 13.9548 12.5714 13.9548C12.8745 13.9548 13.1652 13.8344 13.3796 13.62C13.5939 13.4057 13.7143 13.115 13.7143 12.8119V11.6691C13.7143 10.1535 13.1122 8.70008 12.0406 7.62844C10.969 6.5568 9.51552 5.95476 8 5.95476H6.18743L7.66514 4.47705Z" fill="#050636"/>
</svg>
