<svg width="16" height="13" viewBox="0 0 16 13" fill="none" xmlns="http://www.w3.org/2000/svg">
<path d="M0 2.24048C0 1.71005 0.210714 1.20134 0.585786 0.826265C0.960859 0.451192 1.46957 0.240479 2 0.240479H14C14.5304 0.240479 15.0391 0.451192 15.4142 0.826265C15.7893 1.20134 16 1.71005 16 2.24048V4.24048C15.4696 4.24048 14.9609 4.45119 14.5858 4.82627C14.2107 5.20134 14 5.71005 14 6.24048C14 6.77091 14.2107 7.27962 14.5858 7.65469C14.9609 8.02976 15.4696 8.24048 16 8.24048V10.2405C16 10.7709 15.7893 11.2796 15.4142 11.6547C15.0391 12.0298 14.5304 12.2405 14 12.2405H2C1.46957 12.2405 0.960859 12.0298 0.585786 11.6547C0.210714 11.2796 0 10.7709 0 10.2405V8.24048C0.530433 8.24048 1.03914 8.02976 1.41421 7.65469C1.78929 7.27962 2 6.77091 2 6.24048C2 5.71005 1.78929 5.20134 1.41421 4.82627C1.03914 4.45119 0.530433 4.24048 0 4.24048V2.24048Z" fill="#050636"/>
</svg>
