<svg width="14" height="16" viewBox="0 0 14 16" fill="none" xmlns="http://www.w3.org/2000/svg">
<path fill-rule="evenodd" clip-rule="evenodd" d="M7 6.00708C7.79565 6.00708 8.55871 5.69101 9.12132 5.1284C9.68393 4.56579 10 3.80273 10 3.00708C10 2.21143 9.68393 1.44837 9.12132 0.88576C8.55871 0.323151 7.79565 0.00708008 7 0.00708008C6.20435 0.00708008 5.44129 0.323151 4.87868 0.88576C4.31607 1.44837 4 2.21143 4 3.00708C4 3.80273 4.31607 4.56579 4.87868 5.1284C5.44129 5.69101 6.20435 6.00708 7 6.00708ZM0 15.0071C-1.36979e-08 14.0878 0.18106 13.1776 0.532843 12.3283C0.884626 11.479 1.40024 10.7073 2.05025 10.0573C2.70026 9.40732 3.47194 8.89171 4.32122 8.53992C5.1705 8.18814 6.08075 8.00708 7 8.00708C7.91925 8.00708 8.82951 8.18814 9.67878 8.53992C10.5281 8.89171 11.2997 9.40732 11.9497 10.0573C12.5998 10.7073 13.1154 11.479 13.4672 12.3283C13.8189 13.1776 14 14.0878 14 15.0071H0Z" fill="#050636"/>
</svg>
