<svg width="16" height="17" viewBox="0 0 16 17" fill="none" xmlns="http://www.w3.org/2000/svg">
<path fill-rule="evenodd" clip-rule="evenodd" d="M8 16.2405C10.1217 16.2405 12.1566 15.3976 13.6569 13.8973C15.1571 12.397 16 10.3622 16 8.24048C16 6.11875 15.1571 4.08392 13.6569 2.58362C12.1566 1.08333 10.1217 0.240479 8 0.240479C5.87827 0.240479 3.84344 1.08333 2.34315 2.58362C0.842855 4.08392 0 6.11875 0 8.24048C0 10.3622 0.842855 12.397 2.34315 13.8973C3.84344 15.3976 5.87827 16.2405 8 16.2405ZM5 7.24048H3V9.24048H5V7.24048ZM13 7.24048H11V9.24048H13V7.24048ZM7 7.24048H9V9.24048H7V7.24048Z" fill="#050636"/>
</svg>
