<svg width="16" height="15" viewBox="0 0 16 15" fill="none" xmlns="http://www.w3.org/2000/svg">
<path d="M5 0.240479C4.73478 0.240479 4.48043 0.345835 4.29289 0.533372C4.10536 0.720908 4 0.975262 4 1.24048C4 1.5057 4.10536 1.76005 4.29289 1.94759C4.48043 2.13512 4.73478 2.24048 5 2.24048H11C11.2652 2.24048 11.5196 2.13512 11.7071 1.94759C11.8946 1.76005 12 1.5057 12 1.24048C12 0.975262 11.8946 0.720908 11.7071 0.533372C11.5196 0.345835 11.2652 0.240479 11 0.240479H5ZM2 4.24048C2 3.97526 2.10536 3.72091 2.29289 3.53337C2.48043 3.34584 2.73478 3.24048 3 3.24048H13C13.2652 3.24048 13.5196 3.34584 13.7071 3.53337C13.8946 3.72091 14 3.97526 14 4.24048C14 4.5057 13.8946 4.76005 13.7071 4.94759C13.5196 5.13512 13.2652 5.24048 13 5.24048H3C2.73478 5.24048 2.48043 5.13512 2.29289 4.94759C2.10536 4.76005 2 4.5057 2 4.24048ZM0 8.24048C0 7.71005 0.210714 7.20134 0.585786 6.82627C0.960859 6.45119 1.46957 6.24048 2 6.24048H14C14.5304 6.24048 15.0391 6.45119 15.4142 6.82627C15.7893 7.20134 16 7.71005 16 8.24048V12.2405C16 12.7709 15.7893 13.2796 15.4142 13.6547C15.0391 14.0298 14.5304 14.2405 14 14.2405H2C1.46957 14.2405 0.960859 14.0298 0.585786 13.6547C0.210714 13.2796 0 12.7709 0 12.2405V8.24048Z" fill="#050636"/>
</svg>
